<?xml version="1.0" standalone="no"?>
<!DOCTYPE svg PUBLIC "-//W3C//DTD SVG 20010904//EN"
 "http://www.w3.org/TR/2001/REC-SVG-20010904/DTD/svg10.dtd">
<svg version="1.0" xmlns="http://www.w3.org/2000/svg"
 width="1280.000000pt" height="1280.000000pt" viewBox="0 0 1280.000000 1280.000000"
 preserveAspectRatio="xMidYMid meet">
<metadata>
Created by potrace 1.11, written by Peter Selinger 2001-2013
</metadata>
<g transform="translate(0.000000,1280.000000) scale(0.100000,-0.100000)"
fill="#000000" stroke="none">
<path d="M6386 12761 c-3 -5 -31 -8 -61 -8 -30 1 -57 -2 -59 -8 -3 -7 -5 -7
-5 0 -1 12 -352 10 -360 -3 -3 -4 -39 -8 -78 -9 -40 0 -79 -5 -86 -12 -10 -8
-17 -7 -25 1 -7 7 -12 8 -12 2 0 -5 -22 -9 -50 -8 -27 0 -50 -3 -50 -7 0 -3
-23 -7 -51 -8 -29 0 -57 -4 -63 -9 -6 -5 -27 -8 -46 -6 -19 1 -41 -3 -48 -9
-8 -6 -34 -10 -58 -8 -26 1 -44 -2 -44 -8 0 -7 -24 -11 -60 -11 -33 0 -60 -4
-60 -9 0 -6 -16 -8 -35 -7 -20 2 -39 -2 -45 -10 -6 -7 -18 -10 -26 -7 -9 3
-26 0 -40 -7 -13 -8 -27 -11 -30 -7 -4 3 -16 1 -28 -5 -11 -7 -31 -11 -43 -9
-13 1 -23 -2 -23 -8 0 -6 -21 -11 -49 -11 -28 0 -53 -5 -56 -11 -4 -5 -12 -8
-18 -6 -7 2 -29 -2 -49 -9 -21 -7 -38 -11 -38 -8 0 2 -18 -5 -41 -16 -23 -12
-47 -19 -55 -16 -8 3 -14 -1 -14 -8 0 -8 -9 -12 -25 -11 -14 2 -25 -1 -25 -6
0 -5 -17 -9 -38 -9 -21 0 -42 -3 -46 -7 -4 -5 -11 -8 -14 -9 -28 -3 -62 -18
-62 -26 0 -6 -9 -8 -20 -5 -10 3 -24 -1 -31 -9 -6 -8 -15 -11 -20 -8 -5 3 -9
0 -9 -5 0 -6 -13 -11 -30 -11 -16 0 -30 -4 -30 -10 0 -5 -13 -10 -29 -10 -17
0 -32 -4 -35 -9 -3 -5 -19 -7 -36 -6 -21 2 -31 -3 -35 -16 -4 -12 -16 -19 -31
-19 -17 0 -23 -4 -18 -12 5 -8 2 -9 -9 -5 -10 3 -17 2 -17 -3 0 -6 -9 -10 -19
-10 -11 0 -23 -4 -26 -10 -3 -5 -16 -10 -29 -10 -12 0 -26 -3 -30 -7 -4 -5
-12 -9 -17 -9 -5 -1 -11 -3 -14 -4 -3 -1 -8 -3 -12 -5 -5 -1 -21 -7 -36 -13
-16 -7 -33 -10 -38 -6 -5 3 -9 -4 -9 -14 0 -18 -31 -32 -75 -36 -5 -1 -15 -8
-22 -16 -7 -8 -13 -12 -13 -7 0 4 -15 0 -32 -10 -18 -9 -36 -16 -40 -15 -5 1
-8 -2 -8 -7 0 -10 -69 -45 -90 -45 -8 -1 -24 -9 -34 -18 -11 -10 -28 -18 -38
-18 -10 0 -18 -5 -18 -11 0 -5 -5 -7 -10 -4 -6 3 -13 -1 -16 -9 -3 -9 -10 -13
-15 -10 -5 3 -9 0 -9 -5 0 -6 -7 -11 -15 -11 -8 0 -15 -5 -15 -10 0 -12 -22
-9 -33 5 -4 6 -7 1 -5 -10 2 -15 -2 -19 -16 -17 -11 2 -15 -1 -11 -7 3 -7 -2
-11 -15 -11 -11 0 -23 -7 -26 -15 -4 -8 -13 -15 -20 -15 -8 0 -25 -9 -36 -20
-12 -11 -27 -19 -33 -17 -5 2 -18 -5 -27 -15 -9 -11 -19 -19 -22 -18 -13 1
-66 -31 -66 -40 0 -6 -3 -9 -7 -8 -15 3 -58 -20 -77 -41 -11 -11 -26 -21 -34
-21 -8 0 -20 -7 -26 -16 -6 -8 -19 -16 -28 -18 -9 -1 -31 -16 -49 -34 -18 -18
-39 -32 -46 -32 -7 0 -13 -4 -13 -8 0 -4 -15 -16 -32 -27 -18 -10 -39 -25 -46
-32 -8 -7 -17 -11 -21 -8 -5 2 -14 -7 -21 -20 -7 -13 -16 -22 -21 -20 -4 3
-15 -3 -25 -12 -10 -10 -19 -16 -20 -13 -1 3 -19 -10 -39 -27 -20 -18 -41 -33
-46 -33 -5 0 -9 -6 -9 -14 0 -8 -8 -17 -18 -20 -10 -3 -35 -24 -55 -45 -20
-22 -44 -38 -53 -37 -17 3 -96 -72 -89 -84 3 -4 -6 -10 -18 -14 -29 -7 -82
-52 -82 -68 0 -7 -8 -14 -19 -16 -11 -3 -16 0 -12 7 4 6 2 11 -4 11 -7 0 -10
-7 -6 -15 6 -16 -45 -71 -79 -85 -11 -4 -27 -20 -35 -36 -18 -34 -61 -78 -81
-82 -17 -4 -50 -38 -43 -45 3 -3 -11 -18 -31 -34 -70 -54 -106 -93 -99 -104 4
-8 3 -9 -4 -5 -7 4 -12 3 -12 -2 0 -5 -30 -40 -67 -77 -38 -37 -67 -71 -66
-75 1 -3 -20 -28 -48 -55 -27 -26 -49 -52 -49 -57 0 -5 -20 -29 -45 -53 -25
-24 -44 -48 -43 -53 2 -5 -11 -20 -27 -35 -17 -14 -40 -42 -50 -63 -21 -39
-23 -42 -80 -109 -19 -22 -42 -55 -51 -73 -8 -18 -29 -46 -46 -62 -16 -16 -27
-33 -24 -38 3 -6 -1 -12 -9 -16 -8 -3 -15 -12 -15 -21 0 -8 -4 -15 -8 -15 -4
0 -15 -12 -24 -27 -9 -16 -26 -39 -37 -52 -12 -13 -21 -30 -21 -38 0 -8 -9
-23 -20 -35 -11 -12 -20 -28 -20 -35 0 -7 -4 -13 -8 -13 -10 0 -37 -50 -34
-62 1 -5 -2 -8 -7 -8 -5 0 -12 -12 -15 -26 -5 -20 -11 -24 -29 -19 -14 4 -17
3 -10 -2 18 -12 -5 -70 -29 -76 -12 -3 -16 -11 -12 -21 3 -9 1 -16 -5 -16 -6
0 -11 -9 -11 -19 0 -11 -5 -23 -10 -26 -6 -4 -7 -11 -4 -17 5 -7 2 -9 -8 -6
-10 4 -14 0 -14 -15 1 -13 -5 -22 -14 -22 -9 0 -15 -9 -14 -23 1 -12 -3 -22
-7 -22 -5 0 -9 -9 -9 -20 0 -11 -5 -20 -11 -20 -6 0 -9 -7 -5 -15 3 -9 0 -15
-10 -15 -8 0 -13 -4 -9 -9 3 -5 1 -12 -5 -16 -5 -3 -10 -15 -10 -26 0 -10 -4
-19 -9 -19 -5 0 -11 -8 -14 -17 -21 -70 -51 -131 -72 -149 -17 -14 -22 -25
-15 -29 8 -5 8 -11 -1 -21 -6 -8 -8 -14 -3 -14 5 0 1 -7 -10 -15 -10 -8 -15
-19 -10 -26 4 -7 3 -10 -3 -6 -6 4 -10 -4 -10 -19 0 -15 -6 -30 -13 -34 -6 -4
-12 -10 -12 -13 0 -19 -12 -47 -19 -47 -5 0 -9 -9 -9 -20 0 -11 -4 -20 -9 -20
-6 0 -8 -9 -6 -20 2 -11 -1 -20 -7 -20 -6 0 -8 -9 -5 -21 3 -12 0 -22 -9 -26
-8 -3 -14 -18 -14 -35 0 -20 -4 -27 -12 -22 -8 5 -9 2 -5 -9 3 -9 2 -19 -3
-22 -6 -4 -10 -17 -10 -31 0 -13 -4 -24 -9 -24 -9 0 -24 -37 -22 -56 1 -6 -6
-17 -14 -24 -12 -10 -13 -16 -4 -26 9 -10 8 -15 -3 -19 -8 -3 -14 -20 -15 -39
-1 -19 -8 -49 -16 -67 -27 -61 -52 -134 -49 -146 1 -6 -2 -14 -8 -18 -5 -3
-10 -19 -10 -36 0 -16 -4 -29 -9 -29 -4 0 -7 -16 -6 -36 1 -19 -2 -37 -7 -40
-4 -3 -8 -16 -8 -30 0 -13 -4 -24 -10 -24 -5 0 -10 -11 -10 -24 0 -14 -4 -27
-9 -31 -6 -3 -8 -14 -6 -25 2 -11 0 -20 -4 -20 -8 0 -11 -16 -12 -55 0 -10 -4
-24 -9 -31 -6 -6 -8 -25 -6 -42 2 -18 -2 -33 -9 -35 -7 -3 -11 -27 -10 -66 1
-34 -2 -61 -6 -61 -5 0 -9 -15 -9 -34 0 -19 -4 -37 -8 -40 -5 -3 -9 -22 -10
-42 -1 -21 -5 -40 -10 -43 -4 -3 -8 -27 -9 -53 0 -27 -5 -54 -9 -60 -5 -7 -9
-26 -8 -43 1 -16 -2 -35 -7 -41 -5 -6 -7 -38 -6 -73 2 -34 -1 -65 -5 -67 -9
-6 -7 -54 3 -54 10 0 6 -29 -5 -33 -7 -3 -11 -37 -10 -91 1 -48 -3 -89 -7 -92
-12 -7 -12 -824 0 -824 4 0 8 -41 7 -91 -1 -59 2 -96 10 -103 8 -7 8 -21 2
-45 -6 -21 -6 -37 -1 -38 5 -2 8 -31 6 -66 -1 -37 4 -77 12 -99 10 -25 11 -39
4 -43 -7 -5 -6 -14 3 -28 7 -12 13 -40 13 -62 0 -22 3 -43 7 -46 5 -3 9 -24
10 -47 1 -23 5 -42 10 -42 4 0 8 -17 8 -38 0 -21 3 -42 7 -46 4 -4 8 -32 9
-63 1 -30 5 -58 10 -62 5 -3 9 -17 8 -31 -1 -14 2 -32 7 -41 4 -8 9 -27 11
-42 2 -14 7 -29 10 -33 4 -3 4 -12 1 -20 -3 -8 0 -14 6 -14 6 0 11 -16 11 -35
0 -19 4 -35 9 -35 6 0 8 -9 6 -19 -2 -11 2 -25 10 -31 7 -6 11 -25 9 -45 -1
-19 1 -35 5 -35 5 0 12 -17 15 -37 3 -21 8 -46 9 -56 2 -10 8 -22 14 -25 5 -4
9 -15 8 -24 -2 -10 5 -33 15 -53 10 -19 13 -35 7 -35 -5 0 -1 -8 10 -18 13
-10 19 -26 16 -41 -2 -13 2 -30 8 -37 6 -8 8 -14 4 -14 -4 0 -2 -7 5 -15 7 -8
9 -15 5 -15 -4 0 0 -11 9 -25 9 -13 16 -33 16 -45 0 -11 5 -20 10 -20 6 0 10
-9 10 -20 0 -11 4 -20 9 -20 6 0 8 -8 6 -19 -2 -10 3 -31 12 -47 8 -16 16 -36
18 -44 6 -28 54 -128 64 -134 5 -4 8 -15 6 -26 -2 -11 1 -20 7 -20 6 0 8 -11
6 -25 -4 -17 -1 -25 9 -25 9 0 13 -6 10 -15 -4 -8 -2 -17 3 -20 6 -4 10 -14
10 -23 0 -10 9 -24 19 -32 11 -7 18 -17 15 -21 -2 -4 3 -14 12 -23 8 -9 12
-20 9 -26 -3 -6 3 -23 14 -39 11 -15 18 -30 15 -33 -2 -3 2 -11 11 -18 14 -12
14 -15 -1 -31 -10 -11 -12 -19 -6 -19 6 0 13 6 16 13 3 9 8 7 16 -5 6 -9 17
-23 25 -31 8 -8 12 -17 9 -20 -3 -3 -1 -13 4 -24 19 -35 35 -78 34 -85 -1 -5
2 -8 8 -8 5 0 10 -7 10 -15 0 -9 7 -18 16 -22 8 -3 13 -12 10 -19 -3 -8 -1
-14 4 -14 6 0 10 -5 10 -12 0 -6 7 -19 16 -29 8 -9 16 -24 18 -31 1 -8 20 -42
43 -75 23 -34 39 -64 36 -67 -3 -3 1 -8 10 -12 9 -3 13 -12 10 -20 -3 -8 0
-14 6 -14 6 0 11 -9 11 -20 0 -11 5 -19 10 -18 6 2 18 -10 28 -27 9 -16 20
-32 25 -33 4 -2 5 -8 1 -13 -3 -5 9 -23 27 -40 17 -16 29 -32 26 -35 -3 -3 2
-14 11 -23 23 -24 47 -60 47 -71 0 -4 11 -18 24 -29 13 -12 20 -21 16 -21 -5
0 2 -11 15 -25 13 -14 20 -25 16 -25 -5 0 18 -28 49 -62 32 -34 53 -64 46 -66
-6 -2 4 -18 24 -36 19 -18 35 -37 35 -42 0 -5 18 -26 41 -47 22 -21 38 -41 35
-44 -3 -3 15 -25 40 -49 24 -24 44 -47 44 -52 0 -4 18 -25 40 -47 21 -22 39
-44 40 -49 0 -4 20 -28 45 -53 25 -24 45 -48 45 -53 0 -6 4 -10 8 -10 14 0
122 -112 117 -120 -3 -4 6 -11 19 -14 14 -3 29 -18 36 -36 7 -16 19 -30 27
-30 8 0 17 -9 20 -20 3 -11 9 -18 13 -15 4 3 49 -37 100 -88 51 -50 97 -92
103 -92 7 0 11 -8 11 -18 -1 -9 2 -15 6 -12 7 4 64 -42 138 -112 7 -7 18 -13
23 -13 6 0 7 -5 3 -12 -5 -7 -2 -9 9 -5 10 4 33 -12 69 -47 29 -29 61 -55 71
-59 9 -3 17 -11 17 -17 0 -6 4 -9 9 -6 10 7 51 -27 51 -43 0 -10 13 -15 31
-13 4 1 15 -8 24 -18 10 -11 24 -20 32 -20 7 0 19 -11 25 -25 6 -14 20 -25 30
-25 10 0 21 -6 24 -14 3 -8 17 -17 31 -21 14 -3 34 -17 45 -30 10 -13 40 -34
66 -47 26 -13 49 -26 52 -29 3 -3 19 -14 37 -23 18 -9 36 -22 40 -29 7 -10 53
-36 73 -40 3 0 13 -10 22 -21 10 -12 17 -17 18 -12 0 5 9 -1 20 -14 11 -12 26
-20 34 -17 8 3 22 -3 32 -14 9 -10 23 -19 31 -19 7 0 13 -4 13 -10 0 -5 9 -10
20 -10 11 0 20 -4 20 -8 0 -5 32 -23 70 -42 39 -19 70 -38 70 -44 0 -5 3 -7 6
-3 3 3 21 -3 40 -14 19 -10 41 -19 49 -19 8 0 15 -5 15 -11 0 -5 5 -7 10 -4 6
3 10 2 10 -3 0 -11 37 -25 58 -23 6 1 12 -5 12 -13 0 -10 6 -13 15 -10 8 4 15
1 15 -5 0 -6 5 -11 11 -11 6 0 23 -9 39 -20 15 -11 30 -17 34 -13 3 3 6 0 6
-7 0 -7 3 -11 6 -7 4 3 21 0 39 -8 19 -7 36 -11 39 -7 3 3 6 0 6 -6 0 -7 9
-12 21 -12 11 0 17 -5 14 -10 -4 -6 6 -10 22 -10 17 0 33 -8 40 -19 8 -13 19
-18 33 -14 11 3 20 0 20 -6 0 -6 11 -11 24 -11 14 0 28 -5 31 -10 4 -6 11 -8
16 -5 5 4 9 1 9 -4 0 -6 8 -11 18 -11 23 0 72 -22 72 -33 0 -5 4 -6 9 -3 4 3
27 -4 50 -15 23 -11 46 -17 50 -14 5 3 11 0 13 -6 2 -5 18 -11 36 -11 17 -1
32 -5 32 -10 0 -4 9 -8 20 -8 11 0 35 -9 55 -20 19 -11 36 -19 38 -19 1 1 22
-5 47 -12 25 -7 56 -13 70 -14 14 -1 35 -7 45 -12 11 -6 26 -8 33 -6 6 3 12 0
12 -5 0 -10 53 -26 79 -25 8 1 23 -4 34 -12 10 -7 26 -11 37 -8 10 3 21 0 24
-6 4 -6 18 -11 31 -11 13 0 26 -3 29 -8 2 -4 23 -7 46 -6 22 0 43 -3 46 -8 3
-4 18 -8 34 -8 16 0 32 -4 35 -10 3 -5 24 -10 46 -10 21 0 39 -4 39 -9 0 -5 8
-8 18 -6 9 1 29 -4 45 -12 17 -9 27 -10 27 -3 0 6 4 9 8 6 5 -3 24 -8 43 -11
19 -3 36 -11 37 -16 3 -6 9 -5 18 2 11 9 14 9 14 0 0 -8 5 -9 17 -2 13 7 23 5
35 -6 13 -12 18 -13 18 -3 0 8 4 9 13 3 6 -6 38 -9 70 -7 33 2 57 -1 57 -6 0
-6 22 -10 49 -10 28 0 53 -4 56 -10 3 -5 33 -8 66 -7 36 2 63 -1 67 -8 8 -12
51 -14 567 -19 198 -3 364 -1 370 3 5 4 48 7 95 6 47 0 101 4 120 10 19 6 58
10 85 9 28 0 56 4 64 10 12 9 13 8 6 -4 -6 -12 -5 -13 6 -2 7 6 32 12 56 12
24 0 43 4 43 9 0 5 23 8 51 7 28 -2 56 2 63 8 6 6 34 11 61 10 28 0 55 3 61 8
7 5 24 7 38 4 14 -3 28 0 32 5 3 5 9 7 14 4 5 -3 11 -1 14 4 3 5 19 7 36 6 17
-1 33 1 36 6 3 5 25 9 50 9 25 0 44 5 44 11 0 6 6 9 14 6 7 -3 24 0 38 7 13 7
40 12 61 11 20 -1 34 2 31 6 -4 8 34 14 59 10 4 0 7 4 7 10 0 6 10 9 23 8 12
-2 31 2 42 8 11 6 30 9 43 7 13 -2 25 2 28 10 3 8 12 12 20 9 8 -3 21 0 29 7
8 7 22 10 30 6 9 -3 15 0 15 9 0 9 8 12 22 10 12 -3 32 2 44 10 14 9 25 10 31
4 6 -6 14 -4 23 6 7 8 21 15 31 15 10 0 20 4 24 10 3 5 12 7 19 4 8 -3 17 -1
21 5 3 6 17 11 31 11 13 0 24 5 24 11 0 6 7 8 17 5 9 -4 20 -1 24 5 4 7 16 14
26 16 57 9 83 16 83 24 0 4 9 6 20 4 11 -2 20 0 20 6 0 5 7 9 15 9 8 0 15 5
15 10 0 6 14 10 30 10 17 0 30 5 30 12 0 6 3 9 6 6 3 -4 17 0 31 7 15 8 30 12
35 9 4 -3 8 0 8 5 0 6 7 11 15 11 8 0 15 4 15 9 0 6 10 8 22 6 12 -3 25 -1 28
3 7 11 73 41 83 39 5 -1 13 6 19 17 7 13 12 15 18 6 5 -8 11 -7 24 5 9 9 16
13 16 8 0 -4 6 -1 13 7 7 8 19 16 27 18 29 7 120 54 120 62 0 5 7 7 15 4 8 -4
15 -1 15 7 0 7 3 9 7 6 3 -4 15 0 25 10 10 9 18 13 18 9 0 -3 18 5 40 19 22
14 45 25 51 25 6 0 25 10 42 22 18 13 33 22 34 21 6 -6 40 12 56 29 10 10 22
16 28 13 5 -4 9 -2 9 3 0 9 37 25 53 23 4 -1 10 6 13 14 4 9 25 25 48 35 52
26 79 42 88 55 4 5 10 6 14 2 4 -4 13 2 21 13 8 11 19 20 24 20 8 0 64 35 79
50 12 12 67 47 83 53 9 3 17 11 17 17 0 5 8 10 18 10 10 0 24 9 32 19 7 11 17
18 20 16 4 -3 15 4 25 15 10 11 24 20 31 20 7 0 19 9 26 19 8 11 26 25 41 32
15 7 27 16 27 20 0 5 15 16 33 25 17 9 38 25 45 36 7 10 17 16 21 14 4 -3 22
11 40 29 18 19 39 35 47 35 9 0 12 5 9 10 -3 6 0 10 7 10 7 0 22 11 32 25 10
13 22 23 26 20 3 -2 31 20 60 50 30 30 58 55 63 55 5 0 42 34 84 75 41 41 78
75 82 75 11 0 321 310 321 321 0 4 32 40 70 78 39 38 70 74 70 80 0 6 4 11 9
11 5 0 12 8 16 17 3 10 21 29 39 43 19 14 32 28 30 32 -3 4 14 27 37 50 23 23
42 47 43 53 1 7 14 23 29 37 15 14 27 29 27 33 0 7 19 31 85 108 8 9 15 22 15
27 0 6 11 20 25 32 13 11 22 25 19 29 -2 4 4 14 14 21 11 7 20 18 21 23 1 6
13 23 26 39 13 16 22 33 20 37 -3 4 4 10 15 14 11 3 20 14 20 24 0 10 9 26 20
36 11 10 17 21 15 26 -3 4 1 11 8 16 7 4 21 25 31 46 10 21 24 41 32 44 8 3
12 9 9 13 -2 4 7 20 20 36 14 16 25 34 25 40 0 5 14 29 31 52 16 22 30 42 29
44 -4 9 16 45 33 61 11 9 16 17 12 17 -5 0 -4 5 3 12 7 7 12 20 12 30 0 10 4
18 9 18 8 0 24 37 22 52 -1 5 3 8 8 8 5 0 15 15 22 33 7 17 19 38 26 45 7 7
13 20 13 28 0 8 4 14 9 14 5 0 12 10 16 22 4 13 8 25 9 28 1 3 9 19 19 36 9
17 13 34 10 38 -4 3 -1 6 5 6 7 0 12 6 12 13 0 8 20 54 45 103 25 49 45 90 45
92 -2 14 14 52 22 52 6 0 8 6 5 14 -3 8 1 17 9 20 9 3 13 10 9 16 -3 5 2 24
12 42 10 18 18 42 19 53 1 10 6 21 12 23 6 2 8 10 6 17 -3 8 1 24 10 37 18 25
41 96 37 115 -1 7 2 13 7 13 11 0 23 31 28 70 2 14 8 26 13 28 5 2 8 9 5 16
-3 8 4 30 16 50 11 21 18 41 15 46 -3 5 -1 11 4 14 8 5 22 51 26 88 1 10 7 23
12 30 6 7 9 23 8 36 -1 13 2 25 7 28 4 3 8 21 8 40 0 19 5 34 11 34 7 0 9 10
7 25 -3 13 -1 22 3 19 9 -5 11 -1 12 39 1 12 4 24 8 27 7 5 16 38 24 87 2 11
7 32 11 45 4 12 9 39 11 58 7 84 16 130 24 130 4 0 8 16 7 35 -1 19 3 40 9 47
5 7 9 26 8 41 -1 15 2 30 7 33 4 3 8 23 8 45 0 21 4 39 9 39 5 0 8 28 7 61 -1
34 3 63 9 65 6 3 9 38 9 87 -1 45 2 84 6 87 10 6 16 127 7 136 -3 3 0 16 7 28
9 14 13 54 12 121 -1 55 2 105 6 112 5 6 7 132 4 280 -7 435 -10 503 -18 503
-4 0 -8 38 -8 85 0 47 -4 85 -9 85 -5 0 -8 39 -7 86 1 54 -3 89 -10 95 -7 6
-10 30 -8 59 1 28 -1 50 -7 50 -5 0 -9 23 -9 50 0 28 -4 50 -9 50 -5 0 -8 15
-7 33 1 17 -3 41 -8 52 -6 11 -9 30 -7 43 1 12 -2 22 -8 22 -7 0 -11 23 -11
55 0 30 -4 55 -8 55 -5 0 -8 12 -7 28 1 15 -3 36 -8 47 -5 10 -11 26 -12 35
-6 52 -19 100 -26 100 -5 0 -7 13 -5 30 2 16 -1 30 -5 30 -5 0 -9 11 -9 24 0
14 -5 28 -11 31 -5 4 -9 17 -8 28 2 12 -2 32 -9 44 -7 12 -9 28 -6 36 3 8 1
18 -5 22 -6 3 -11 15 -11 26 0 10 -5 19 -11 19 -6 0 -9 8 -6 18 2 9 -3 29 -10
45 -7 15 -10 27 -6 27 5 0 3 4 -2 8 -13 8 -39 92 -31 99 3 3 0 15 -6 27 -7 11
-12 24 -13 28 0 3 -3 10 -7 14 -5 4 -8 18 -8 31 0 12 -4 23 -9 23 -6 0 -8 9
-6 20 2 12 -2 20 -10 20 -8 0 -11 7 -8 20 3 11 1 20 -5 20 -10 0 -20 25 -29
69 -2 13 -12 38 -21 55 -9 17 -15 34 -14 38 1 4 -9 28 -23 54 -14 26 -25 55
-25 65 0 11 -5 19 -10 19 -6 0 -9 3 -8 8 1 4 -6 22 -15 40 -10 17 -14 32 -10
32 5 0 1 5 -7 10 -8 5 -16 13 -16 17 -4 24 -17 53 -24 53 -9 0 -23 37 -23 63
0 9 -4 17 -9 17 -6 0 -8 6 -5 14 3 8 -1 17 -9 20 -9 3 -13 10 -10 15 3 5 -1
14 -9 21 -8 7 -12 16 -9 21 3 5 0 9 -5 9 -6 0 -11 5 -11 11 0 6 -9 22 -20 36
-11 14 -17 30 -14 35 4 6 2 13 -3 17 -5 3 -17 22 -26 41 -23 46 -40 74 -51 81
-5 4 -6 11 -2 17 3 5 -1 13 -10 16 -8 3 -13 10 -10 15 3 4 -3 16 -14 26 -11
10 -20 24 -20 32 0 7 -5 13 -10 13 -10 0 -35 48 -32 63 1 4 -2 7 -6 7 -4 0
-14 16 -21 35 -7 19 -17 35 -23 35 -6 0 -8 3 -5 7 4 3 -2 12 -13 20 -11 8 -20
21 -20 29 0 8 -5 14 -11 14 -5 0 -8 4 -4 9 3 5 1 12 -5 16 -5 3 -10 15 -10 26
0 10 -3 18 -7 18 -21 -3 -33 2 -28 12 4 6 -2 17 -14 25 -12 8 -21 22 -21 30 0
8 -6 17 -14 20 -8 3 -17 16 -20 30 -4 13 -11 24 -16 24 -6 0 -10 5 -10 11 0 7
-9 20 -21 30 -11 9 -20 21 -20 26 1 16 -63 101 -73 96 -5 -4 -7 1 -3 10 3 9 0
20 -7 24 -7 5 -18 18 -25 31 -7 12 -16 20 -22 17 -5 -4 -9 1 -9 10 0 10 -14
30 -30 45 -17 16 -31 33 -32 37 0 12 -66 82 -71 77 -4 -4 -27 49 -28 66 0 3
-14 13 -30 23 -16 11 -29 23 -29 29 0 5 -20 31 -45 56 -112 117 -175 186 -175
194 0 4 -4 8 -8 8 -5 0 -64 56 -133 125 -68 69 -129 125 -136 125 -7 0 -19 12
-27 28 -8 15 -15 23 -16 18 0 -5 -25 17 -55 48 -30 31 -60 56 -65 56 -6 0 -30
20 -53 45 -24 25 -47 45 -52 45 -8 0 -71 53 -130 108 -17 15 -37 32 -45 36
-42 20 -66 38 -106 77 -24 24 -44 40 -44 36 0 -4 -10 2 -22 13 -12 11 -29 18
-36 15 -10 -4 -13 0 -9 15 3 11 1 20 -4 20 -5 0 -9 -5 -9 -11 0 -5 -5 -7 -10
-4 -6 4 -8 11 -5 16 4 5 -1 9 -10 9 -8 0 -18 6 -21 14 -3 8 -12 12 -20 9 -8
-3 -14 0 -14 6 0 6 -9 11 -21 11 -12 0 -23 8 -26 19 -5 21 -29 35 -44 25 -5
-3 -9 2 -9 10 0 9 -9 16 -20 16 -11 0 -20 5 -20 11 0 5 -13 15 -30 20 -16 6
-30 15 -30 20 0 10 -61 44 -72 41 -5 -1 -8 3 -8 8 0 6 -6 10 -13 10 -8 0 -22
9 -32 20 -10 11 -22 17 -27 14 -5 -3 -30 10 -56 28 -56 40 -100 60 -113 53 -5
-4 -9 -1 -9 4 0 6 -6 11 -13 11 -7 0 -19 9 -27 19 -7 11 -18 17 -23 14 -5 -3
-12 -1 -16 4 -7 10 -80 47 -96 48 -15 0 -59 26 -67 39 -4 6 -11 11 -15 11 -4
1 -30 12 -58 27 -27 14 -56 23 -62 21 -7 -3 -13 0 -13 6 0 6 -9 11 -19 11 -11
0 -21 4 -23 8 -4 11 -101 56 -115 54 -6 -2 -14 2 -18 8 -3 5 -15 10 -26 10
-20 0 -59 19 -70 34 -4 5 -11 6 -16 3 -6 -4 -19 2 -29 12 -11 10 -37 21 -57
25 -20 4 -37 11 -37 16 0 6 -14 10 -30 10 -17 0 -38 4 -48 9 -45 23 -95 41
-99 37 -3 -3 -12 2 -20 10 -8 8 -19 12 -24 8 -5 -3 -12 1 -15 10 -3 9 -14 13
-30 10 -13 -2 -37 2 -52 9 -15 8 -33 12 -39 10 -7 -3 -13 1 -13 7 0 7 -6 10
-14 7 -7 -3 -22 0 -32 7 -11 6 -29 11 -41 10 -13 -1 -23 3 -23 8 0 5 -4 7 -8
4 -5 -3 -21 1 -36 9 -14 8 -33 12 -40 9 -8 -3 -20 1 -27 9 -7 8 -22 12 -33 9
-12 -3 -17 -1 -13 6 8 11 -11 11 -30 -1 -8 -5 -13 -4 -13 2 0 6 -16 11 -35 11
-19 0 -35 4 -35 10 0 5 -7 7 -15 4 -8 -4 -21 -1 -29 5 -7 6 -25 12 -40 13 -14
1 -26 6 -26 10 0 3 -13 6 -30 6 -16 -1 -35 3 -42 9 -7 5 -26 9 -41 8 -15 -1
-30 2 -33 7 -3 4 -27 8 -53 8 -26 0 -52 5 -59 12 -8 8 -15 8 -27 -2 -10 -8
-15 -9 -15 -1 0 6 -17 11 -38 11 -21 0 -42 3 -46 7 -4 4 -21 8 -39 9 -18 1
-43 6 -56 11 -14 5 -42 7 -63 3 -30 -6 -38 -4 -38 8 0 9 -7 13 -20 9 -11 -3
-20 0 -20 5 0 6 -5 7 -12 2 -15 -11 -31 -11 -78 1 -45 11 -112 15 -395 21
-126 3 -235 10 -242 15 -7 6 -13 6 -17 0z"/>
<path d="M4550 12550 c0 -5 7 -10 16 -10 8 0 12 5 9 10 -3 6 -10 10 -16 10 -5
0 -9 -4 -9 -10z"/>
<path d="M4185 12400 c-3 -5 -1 -10 4 -10 6 0 11 5 11 10 0 6 -2 10 -4 10 -3
0 -8 -4 -11 -10z"/>
<path d="M3145 11920 c-3 -5 -1 -10 4 -10 6 0 11 5 11 10 0 6 -2 10 -4 10 -3
0 -8 -4 -11 -10z"/>
<path d="M2995 11820 c-3 -5 -1 -10 4 -10 6 0 11 5 11 10 0 6 -2 10 -4 10 -3
0 -8 -4 -11 -10z"/>
<path d="M2905 11779 c-11 -17 1 -21 15 -4 8 9 8 15 2 15 -6 0 -14 -5 -17 -11z"/>
<path d="M2090 11180 c0 -5 5 -10 11 -10 5 0 7 5 4 10 -3 6 -8 10 -11 10 -2 0
-4 -4 -4 -10z"/>
<path d="M1860 10930 c0 -5 5 -10 11 -10 5 0 7 5 4 10 -3 6 -8 10 -11 10 -2 0
-4 -4 -4 -10z"/>
<path d="M1730 10800 c0 -5 5 -10 11 -10 5 0 7 5 4 10 -3 6 -8 10 -11 10 -2 0
-4 -4 -4 -10z"/>
<path d="M1335 10340 c-3 -5 -1 -10 4 -10 6 0 11 5 11 10 0 6 -2 10 -4 10 -3
0 -8 -4 -11 -10z"/>
<path d="M1300 10270 c0 -5 5 -10 11 -10 5 0 7 5 4 10 -3 6 -8 10 -11 10 -2 0
-4 -4 -4 -10z"/>
<path d="M685 3510 c3 -5 11 -10 16 -10 6 0 7 5 4 10 -3 6 -11 10 -16 10 -6 0
-7 -4 -4 -10z"/>
<path d="M1265 2580 c3 -5 8 -10 11 -10 2 0 4 5 4 10 0 6 -5 10 -11 10 -5 0
-7 -4 -4 -10z"/>
<path d="M2945 1020 c-3 -5 -2 -10 4 -10 5 0 13 5 16 10 3 6 2 10 -4 10 -5 0
-13 -4 -16 -10z"/>
<path d="M3526 687 c3 -10 9 -15 12 -12 3 3 0 11 -7 18 -10 9 -11 8 -5 -6z"/>
</g>
</svg>
